{
    "asset" : {
        "generator" : "Khronos glTF Blender I/O v1.7.33",
        "version" : "2.0"
    },
    "scene" : 0,
    "scenes" : [
        {
            "name" : "Scene",
            "nodes" : [
                0
            ]
        }
    ],
    "nodes" : [
        {
            "mesh" : 0,
            "name" : "Architexture",
            "rotation" : [
                0.7071068286895752,
                0,
                0,
                0.7071068286895752
            ],
            "translation" : [
                -0.38856881856918335,
                0,
                0.04791615158319473
            ]
        }
    ],
    "materials" : [
        {
            "doubleSided" : true,
            "name" : "Book edges",
            "pbrMetallicRoughness" : {
                "baseColorFactor" : [
                    0.5595844984054565,
                    0.5536916851997375,
                    0.5362330079078674,
                    1
                ],
                "metallicFactor" : 0,
                "roughnessFactor" : 0.5
            }
        },
        {
            "doubleSided" : true,
            "name" : "Book pages",
            "pbrMetallicRoughness" : {
                "baseColorFactor" : [
                    0.8829042911529541,
                    0.8829042911529541,
                    0.8829042911529541,
                    1
                ],
                "metallicFactor" : 0,
                "roughnessFactor" : 0.5
            }
        },
        {
            "doubleSided" : true,
            "name" : "Book cover",
            "pbrMetallicRoughness" : {
                "baseColorTexture" : {
                    "index" : 0
                },
                "metallicFactor" : 0,
                "roughnessFactor" : 0.5
            }
        }
    ],
    "meshes" : [
        {
            "name" : "Plane",
            "primitives" : [
                {
                    "attributes" : {
                        "POSITION" : 0,
                        "NORMAL" : 1,
                        "TEXCOORD_0" : 2
                    },
                    "indices" : 3,
                    "material" : 0
                },
                {
                    "attributes" : {
                        "POSITION" : 4,
                        "NORMAL" : 5,
                        "TEXCOORD_0" : 6
                    },
                    "indices" : 7,
                    "material" : 1
                },
                {
                    "attributes" : {
                        "POSITION" : 8,
                        "NORMAL" : 9,
                        "TEXCOORD_0" : 10
                    },
                    "indices" : 11,
                    "material" : 2
                }
            ]
        }
    ],
    "textures" : [
        {
            "sampler" : 0,
            "source" : 0
        }
    ],
    "images" : [
        {
            "mimeType" : "image/jpeg",
            "name" : "Frame 9Book cover",
            "uri" : "textures/Frame%209Book%20cover.jpg"
        }
    ],
    "accessors" : [
        {
            "bufferView" : 0,
            "componentType" : 5126,
            "count" : 198,
            "max" : [
                0.7726731300354004,
                0,
                0.5
            ],
            "min" : [
                0.038832783699035645,
                -0.09035468101501465,
                -0.5
            ],
            "type" : "VEC3"
        },
        {
            "bufferView" : 1,
            "componentType" : 5126,
            "count" : 198,
            "type" : "VEC3"
        },
        {
            "bufferView" : 2,
            "componentType" : 5126,
            "count" : 198,
            "type" : "VEC2"
        },
        {
            "bufferView" : 3,
            "componentType" : 5123,
            "count" : 336,
            "type" : "SCALAR"
        },
        {
            "bufferView" : 4,
            "componentType" : 5126,
            "count" : 132,
            "max" : [
                0.75767982006073,
                -0.01148907095193863,
                0.48721909523010254
            ],
            "min" : [
                0.04943813383579254,
                -0.07886560261249542,
                -0.48721909523010254
            ],
            "type" : "VEC3"
        },
        {
            "bufferView" : 5,
            "componentType" : 5126,
            "count" : 132,
            "type" : "VEC3"
        },
        {
            "bufferView" : 6,
            "componentType" : 5126,
            "count" : 132,
            "type" : "VEC2"
        },
        {
            "bufferView" : 7,
            "componentType" : 5123,
            "count" : 198,
            "type" : "SCALAR"
        },
        {
            "bufferView" : 8,
            "componentType" : 5126,
            "count" : 52,
            "max" : [
                0.7726731300354004,
                0,
                0.5
            ],
            "min" : [
                0.038832783699035645,
                -0.09035468101501465,
                -0.5
            ],
            "type" : "VEC3"
        },
        {
            "bufferView" : 9,
            "componentType" : 5126,
            "count" : 52,
            "type" : "VEC3"
        },
        {
            "bufferView" : 10,
            "componentType" : 5126,
            "count" : 52,
            "type" : "VEC2"
        },
        {
            "bufferView" : 11,
            "componentType" : 5123,
            "count" : 78,
            "type" : "SCALAR"
        }
    ],
    "bufferViews" : [
        {
            "buffer" : 0,
            "byteLength" : 2376,
            "byteOffset" : 0
        },
        {
            "buffer" : 0,
            "byteLength" : 2376,
            "byteOffset" : 2376
        },
        {
            "buffer" : 0,
            "byteLength" : 1584,
            "byteOffset" : 4752
        },
        {
            "buffer" : 0,
            "byteLength" : 672,
            "byteOffset" : 6336
        },
        {
            "buffer" : 0,
            "byteLength" : 1584,
            "byteOffset" : 7008
        },
        {
            "buffer" : 0,
            "byteLength" : 1584,
            "byteOffset" : 8592
        },
        {
            "buffer" : 0,
            "byteLength" : 1056,
            "byteOffset" : 10176
        },
        {
            "buffer" : 0,
            "byteLength" : 396,
            "byteOffset" : 11232
        },
        {
            "buffer" : 0,
            "byteLength" : 624,
            "byteOffset" : 11628
        },
        {
            "buffer" : 0,
            "byteLength" : 624,
            "byteOffset" : 12252
        },
        {
            "buffer" : 0,
            "byteLength" : 416,
            "byteOffset" : 12876
        },
        {
            "buffer" : 0,
            "byteLength" : 156,
            "byteOffset" : 13292
        }
    ],
    "samplers" : [
        {
            "magFilter" : 9729,
            "minFilter" : 9987
        }
    ],
    "buffers" : [
        {
            "byteLength" : 13448,
            "uri" : "book-blue.bin"
        }
    ]
}
